<svg width="1223" height="256" viewBox="0 0 1223 256" fill="none" xmlns="http://www.w3.org/2000/svg">
<g clip-path="url(#clip0)">
<rect width="1223" height="256" fill="white"/>
<rect x="-1" y="1" width="1224" height="255" fill="white"/>
<path d="M0 94L1223 82V135C1223 135 1204 232 1020 189C836 146 759 192 571 227C383 262 327 218 180 218C33 218 0 256 0 256V94Z" fill="#E25750" fill-opacity="0.63"/>
<path d="M0 0V232C0 232 68.3348 189.581 170.721 182C287.763 173.334 332.061 221.077 449.265 215C582.408 208.097 722.459 55.1165 841.624 115C1134.15 262 1223 159 1223 159V0H0Z" fill="#E25750"/>
<path d="M0 0V232C0 232 68.3348 189.581 170.721 182C287.763 173.334 332.061 221.077 449.265 215C582.408 208.097 722.459 55.1165 841.624 115C1134.15 262 1223 159 1223 159V0H0Z" stroke="#E25750"/>
<path d="M0 0V232C0 232 68.3348 189.581 170.721 182C287.763 173.334 332.061 221.077 449.265 215C582.408 208.097 722.459 55.1165 841.624 115C1134.15 262 1223 159 1223 159V0H0Z" stroke="#E25750"/>
<path d="M-9 220C-9 220 78.8238 176.671 149 169C256.113 157.291 348.551 205.07 456 197C587.189 187.147 727 36 825 92C923 148 1054 200 1144 183C1191.17 174.091 1225 132 1225 132" stroke="white" stroke-width="4"/>
</g>
<defs>
<clipPath id="clip0">
<rect width="1223" height="256" fill="white"/>
</clipPath>
</defs>
</svg>
